<svg width="50" height="65" viewBox="0 0 50 65" fill="none" xmlns="http://www.w3.org/2000/svg">
<rect x="8" y="61" width="34" height="4" fill="black"/>
<rect x="16" y="54" width="18" height="4" fill="black"/>
<rect x="16" y="22" width="18" height="4" fill="black"/>
<rect x="12" y="58" width="26" height="3" fill="black"/>
<rect x="18" y="19" width="14" height="3" fill="black"/>
<circle cx="25" cy="11" r="5" fill="black"/>
<path d="M21 26C21 48.5 18 54 18 54H32C32 54 29.5 49.5 29 26H21Z" fill="black" stroke="black"/>
<path d="M14.4999 10L20.9999 19H29.9999L35.4999 10H28.9999C25.8221 12.1765 24.0652 12.3631 20.9999 10H14.4999Z" fill="black" stroke="black"/>
<rect x="24" width="2" height="7" fill="black"/>
<rect x="22" y="2" width="6" height="2" fill="black"/>
</svg>
