<svg width="50" height="55" viewBox="0 0 50 55" fill="none" xmlns="http://www.w3.org/2000/svg">
<rect x="8" y="51" width="34" height="4" fill="black"/>
<rect x="12" y="48" width="26" height="3" fill="black"/>
<path d="M41.4999 28.5C40.9999 28.5 39.2355 26.7039 36.9999 26.5C38.1357 29.3585 41 30.5 41.4999 30.5C41.9999 30.5 40.9999 32 40.9999 32L37.4999 32.5C36.7493 29.899 35.8641 28.8118 33.4999 27.5C30.588 26.3729 29.2504 26.9407 26.9999 28.5C24.764 32.4099 29.115 36.7297 40.9999 46C32.9961 43.3144 30.9679 43.6867 34.4999 48.5H16.4999C17.8611 45.7084 17.2509 44.6357 13.9999 43.5C12.2782 43.0936 11.3951 43.1879 9.99994 44C10.5477 42.4512 11.0712 41.8732 12.4999 41.5C11.0382 41.0322 10.2218 40.7858 8.99994 41.5C9.52917 40.3447 9.99994 40 11.4999 39L9.49994 38.5L6.49994 39C6.49994 39 10.7055 37.2848 9.49994 36.5C8.29434 35.7152 5.99994 36 5.99994 36L8.99994 35C8.38882 34.0684 7.86142 33.7223 6.49994 33.5L8.49994 32.5C7.99394 31.3051 6.37682 31.0664 4.99994 31L8.49994 30.5C7.64041 28.6125 6.40294 28.4594 4.99994 28.5L8.49994 27.5C7.7781 26.3524 6.71681 26.1067 5.32726 26.4182L4.99994 26.5C5.111 26.4695 5.22011 26.4422 5.32726 26.4182L8.99994 25.5C7.76162 24.4714 6.82934 24.3629 4.99994 24.5L8.99994 23.5C7.82 22.2279 6.91452 21.9526 4.99994 22L9.49994 21C7.97335 19.6861 7.00501 19.3043 4.99994 19.5L9.49994 18.5C7.91741 17.18 6.93588 16.7306 4.99994 16.5H9.49994C8.43042 14.7189 7.61767 14.2976 5.99994 14H10.4999C9.21453 12.5219 8.28006 12.0807 6.49994 11.5L11.4999 12C10.4406 10.0762 9.4707 9.41449 7.49994 8.5L12.4999 10C12.3062 7.86881 11.3407 7.23209 8.99994 6.5H14.4999L19.5 2C19.1429 5.03232 19.4164 6.52688 21.5 8.5C24.2381 9.97973 24 10 26 10.5C28 12 27.8232 11.932 29.5 14C36.0304 18.0907 35 21 43.5 24.5C43.8673 26.2166 42 28.5 41.4999 28.5Z" fill="black"/>
<path d="M14.4999 6.5H8.99994C11.3407 7.23209 12.3062 7.86881 12.4999 10L7.49994 8.5C9.4707 9.41449 10.4406 10.0762 11.4999 12L6.49994 11.5C8.28006 12.0807 9.21453 12.5219 10.4999 14H5.99994C7.61767 14.2976 8.43042 14.7189 9.49994 16.5H4.99994C6.93588 16.7306 7.91741 17.18 9.49994 18.5L4.99994 19.5C7.00501 19.3043 7.97335 19.6861 9.49994 21L4.99994 22C6.91452 21.9526 7.82 22.2279 8.99994 23.5L4.99994 24.5C6.82934 24.3629 7.76162 24.4714 8.99994 25.5L4.99994 26.5C6.5511 26.0742 7.72243 26.2639 8.49994 27.5L4.99994 28.5C6.40294 28.4594 7.64041 28.6125 8.49994 30.5L4.99994 31C6.37682 31.0664 7.99394 31.3051 8.49994 32.5L6.49994 33.5C7.86142 33.7223 8.38882 34.0684 8.99994 35L5.99994 36C5.99994 36 8.29434 35.7152 9.49994 36.5C10.7055 37.2848 6.49994 39 6.49994 39L9.49994 38.5L11.4999 39C9.99994 40 9.52917 40.3447 8.99994 41.5C10.2218 40.7858 11.0382 41.0322 12.4999 41.5C11.0712 41.8732 10.5477 42.4512 9.99994 44C11.3951 43.1879 12.2782 43.0936 13.9999 43.5C17.2509 44.6357 17.8611 45.7084 16.4999 48.5H34.4999C30.9679 43.6867 32.9961 43.3144 40.9999 46C29.115 36.7297 24.764 32.4099 26.9999 28.5C29.2504 26.9406 30.588 26.3729 33.4999 27.5C35.8641 28.8118 36.7493 29.899 37.4999 32.5L40.9999 32C40.9999 32 41.9999 30.5 41.4999 30.5C41 30.5 38.1357 29.3585 36.9999 26.5C39.2355 26.7039 40.9999 28.5 41.4999 28.5C42 28.5 43.8673 26.2166 43.5 24.5C35 21 36.0304 18.0907 29.5 14C27.8232 11.932 28 12 26 10.5C24 10 24.2381 9.97973 21.5 8.5M14.4999 6.5L19.5 2C19.1429 5.03232 19.4164 6.52688 21.5 8.5M14.4999 6.5V9.5L21.5 8.5" stroke="black"/>
</svg>
