<svg width="50" height="60" viewBox="0 0 50 60" fill="none" xmlns="http://www.w3.org/2000/svg">
<rect x="8" y="56" width="34" height="4" fill="black"/>
<rect x="16" y="49" width="18" height="4" fill="black"/>
<rect x="16" y="17" width="18" height="4" fill="black"/>
<rect x="12" y="53" width="26" height="3" fill="black"/>
<rect x="18" y="14" width="14" height="3" fill="black"/>
<circle cx="25" cy="6" r="5" fill="black"/>
<path d="M21 21C21 43.5 18 49 18 49H32C32 49 29.5 44.5 29 21H21Z" fill="black" stroke="black"/>
<path d="M14.4999 5.00001C14.4999 5.00001 20.4998 11 20.9999 14C21.5 17 29.4503 16.7476 29.9999 14C30.5494 11.2524 35.4999 5.00001 35.4999 5.00001C32.6872 6.16788 31.2515 6.23087 28.9999 5.00001C25.8221 7.17651 24.0652 7.36312 20.9999 5.00001C18.68 6.11413 14.4999 5.00001 14.4999 5.00001Z" fill="black" stroke="black"/>
<circle cx="25" cy="1" r="1" fill="black"/>
</svg>
