<svg width="50" height="54" viewBox="0 0 50 54" fill="none" xmlns="http://www.w3.org/2000/svg">
<rect x="8" y="50" width="34" height="4" fill="black"/>
<path d="M16 10C16 10 18 12 18 14H32C32 12 34 10 34 10H16Z" fill="black" stroke="black"/>
<rect x="12" y="47" width="26" height="3" fill="black"/>
<rect x="18" y="14" width="14" height="29" fill="black"/>
<rect x="14" y="6" width="22" height="4" fill="black"/>
<rect x="14" y="2" width="4" height="4" fill="black"/>
<rect x="20" y="2" width="4" height="4" fill="black"/>
<rect x="26" y="2" width="4" height="4" fill="black"/>
<rect x="32" y="2" width="4" height="4" fill="black"/>
<path d="M18 43C18 43 18 47 16 47H34C32 47 32 43 32 43H18Z" fill="black" stroke="black"/>
</svg>
